<?xml version="1.0" standalone="no"?>
<!DOCTYPE svg PUBLIC "-//W3C//DTD SVG 20010904//EN"
 "http://www.w3.org/TR/2001/REC-SVG-20010904/DTD/svg10.dtd">
<svg version="1.0" xmlns="http://www.w3.org/2000/svg"
 width="512.000000pt" height="512.000000pt" viewBox="0 0 512.000000 512.000000"
 preserveAspectRatio="xMidYMid meet">

<g transform="translate(0.000000,512.000000) scale(0.100000,-0.100000)"
fill="#000000" stroke="none">
<path d="M1392 5105 c-193 -42 -350 -183 -424 -381 -21 -56 -22 -75 -26 -448
l-3 -390 -25 -29 c-37 -44 -54 -93 -54 -156 0 -68 46 -313 65 -351 22 -43 81
-88 122 -95 63 -11 63 -11 63 -68 0 -116 54 -266 145 -403 57 -85 196 -232
271 -286 l44 -31 0 -82 c0 -72 -3 -84 -22 -102 -14 -11 -86 -36 -178 -61
l-155 -42 -310 -2 c-296 -3 -312 -4 -350 -25 -22 -11 -50 -32 -62 -45 -32 -35
-63 -108 -63 -153 0 -36 -4 -42 -43 -64 -173 -98 -300 -261 -349 -446 -16 -61
-20 -138 -29 -610 -6 -297 -8 -561 -5 -587 10 -92 65 -171 151 -216 l50 -27
1834 -3 c1227 -1 1846 1 1871 8 96 26 189 126 204 220 3 22 2 287 -4 589 -9
486 -13 558 -30 624 -48 191 -173 348 -360 453 -55 31 -70 44 -70 63 0 74 -52
156 -123 194 -40 21 -56 22 -347 27 l-305 5 -140 39 c-180 51 -185 55 -185
162 l0 82 48 35 c123 91 279 280 341 415 l24 52 244 0 c228 0 244 -1 239 -17
-23 -79 -86 -348 -86 -370 0 -34 31 -86 63 -108 43 -28 87 -29 135 -3 24 13
182 130 352 261 l308 237 306 0 c288 0 308 1 363 22 79 29 171 120 204 203
l24 60 3 554 c2 361 -1 578 -8 623 -24 159 -128 272 -282 308 -26 6 -359 10
-864 10 l-822 0 -25 53 c-74 149 -228 267 -395 302 -96 21 -1236 20 -1330 0z
m3205 -514 l241 -6 39 -31 c21 -17 48 -48 60 -70 l23 -39 0 -585 0 -586 -22
-44 c-14 -26 -41 -57 -66 -75 l-44 -30 -333 -5 c-333 -5 -333 -5 -367 -29 -18
-14 -157 -119 -308 -234 -151 -116 -280 -214 -286 -219 -6 -5 11 84 39 196 56
222 56 248 7 273 -18 9 -99 13 -297 13 l-273 0 0 59 0 59 51 12 c55 13 111 55
134 100 20 38 65 284 65 352 0 62 -26 132 -61 164 -18 16 -19 34 -19 376 l0
358 588 -1 c323 -1 696 -4 829 -8z m-2770 -164 c87 -64 137 -81 233 -81 94 -1
152 20 238 86 l44 33 151 3 c145 3 154 2 187 -20 68 -45 70 -57 70 -393 0
-278 1 -302 19 -331 12 -20 34 -37 56 -44 l37 -12 -4 -277 c-3 -269 -4 -278
-30 -349 -41 -112 -111 -216 -217 -322 -181 -179 -392 -290 -553 -290 -240 0
-601 263 -733 535 -59 120 -65 160 -65 447 0 238 1 259 18 264 90 29 92 36 92
391 0 280 1 300 20 331 40 65 67 73 235 70 l151 -3 51 -38z m1283 -726 c0 -37
-38 -251 -50 -278 -6 -13 -18 -23 -30 -23 -20 0 -20 4 -18 177 l3 178 30 6
c36 7 65 -19 65 -60z m-2016 53 c14 -5 16 -31 16 -180 0 -168 -1 -174 -20
-174 -27 0 -35 23 -60 160 -23 132 -25 171 -8 188 13 13 47 16 72 6z m807
-1455 c116 -36 227 -32 354 13 55 19 107 38 116 42 13 6 18 -4 27 -50 7 -31
21 -72 33 -90 l21 -34 -391 0 c-215 0 -391 2 -391 4 0 2 11 24 25 47 17 30 25
59 25 91 l0 47 54 -24 c29 -13 87 -34 127 -46z m1548 -280 c17 -6 36 -20 42
-30 7 -14 -5 -232 -41 -747 -28 -400 -53 -742 -56 -760 -3 -18 -14 -42 -25
-53 -19 -19 -45 -19 -1329 -19 -1280 0 -1310 0 -1329 19 -11 11 -22 39 -25 63
-14 108 -106 1477 -100 1492 18 47 -31 45 1445 46 987 0 1395 -3 1418 -11z
m252 -290 c67 -42 154 -139 189 -210 52 -102 58 -151 64 -554 12 -752 13 -721
-10 -752 -33 -45 -80 -63 -160 -63 l-72 0 -4 65 c-5 84 -42 139 -116 175 -49
24 -51 26 -46 60 4 28 94 1277 94 1303 0 12 13 7 61 -24z m-3257 -31 c3 -24
24 -306 46 -628 22 -322 43 -603 48 -625 7 -39 6 -40 -38 -70 -61 -41 -90 -94
-90 -169 l0 -58 -84 3 c-96 4 -129 21 -158 80 -15 31 -16 77 -7 574 11 579 13
601 66 713 26 55 178 222 202 222 5 0 12 -19 15 -42z m3096 -1458 c24 -24 25
-47 3 -72 -15 -17 -75 -18 -1481 -18 -1350 0 -1467 1 -1484 17 -25 22 -23 59
4 77 20 14 177 16 1480 16 1445 0 1458 0 1478 -20z"/>
<path d="M4153 4262 c-11 -7 -319 -625 -343 -688 -16 -42 38 -81 76 -56 15 9
344 685 344 705 0 16 -36 47 -55 47 -5 0 -16 -4 -22 -8z"/>
<path d="M3512 3939 c-130 -86 -158 -114 -147 -149 8 -25 255 -190 284 -190
24 0 61 41 61 68 0 16 -22 36 -85 78 -47 32 -85 60 -85 63 0 3 28 24 63 45 81
52 107 75 107 98 0 22 -43 68 -62 68 -7 0 -68 -37 -136 -81z"/>
<path d="M4350 4000 c-11 -11 -20 -33 -20 -49 0 -26 10 -36 87 -86 l86 -57
-86 -56 c-78 -51 -87 -60 -87 -88 0 -34 26 -64 55 -64 18 0 242 139 271 167
19 20 18 67 -3 85 -32 29 -256 168 -270 168 -7 0 -22 -9 -33 -20z"/>
<path d="M1963 1424 c-54 -20 -128 -85 -155 -138 -13 -26 -23 -67 -26 -112 -4
-61 -1 -80 20 -125 83 -182 310 -227 451 -91 53 51 79 105 85 178 16 203 -183
356 -375 288z m152 -148 c70 -30 96 -122 52 -187 -68 -101 -221 -67 -234 52
-12 107 82 177 182 135z"/>
</g>
</svg>
